# xmcd
#
# Track frame offsets: 
#        150
#        13787
#        26160
#        38925
#        53110
#        66697
#        78327
#        91602
#        104127
#        118007
#        130795
#        145395
#        158615
#        173262
#        187207
#        201320
#        215080
#        228717
#        241127
#        256325
#
# Disc length: 3597 seconds
#
# Revision: 1
# Processed by: cddbd v1.5.2PL0 Copyright (c) Steve Scherf et al.
# Submitted via: ExactAudioCopyFreeDBPlugin 1.0
#
DISCID=240e0b14
DTITLE=Billie Holiday - The Best of Billie Holiday Volume 3
DYEAR=1996
DGENRE=Jazz
TTITLE0=Night and day
TTITLE1=You're a lucky guy
TTITLE2=Them there eyes
TTITLE3=Strange fruit
TTITLE4=It's easy to blame the weather
TTITLE5=Say it with a kiss
TTITLE6=That's all I ask of you
TTITLE7=Sugar
TTITLE8=More than you know
TTITLE9=I gotta right to sing the blues
TTITLE10=Fine and mellow
TTITLE11=Swing, Brother, Swing
TTITLE12=They say
TTITLE13=The man I love
TTITLE14=What shall I say?
TTITLE15=Everybody's laughing
TTITLE16=Some other spring
TTITLE17=Here it is tommorrow again
TTITLE18=Yesterdays
TTITLE19=Body and soul
EXTD=
EXTT0=
EXTT1=
EXTT2=
EXTT3=
EXTT4=
EXTT5=
EXTT6=
EXTT7=
EXTT8=
EXTT9=
EXTT10=
EXTT11=
EXTT12=
EXTT13=
EXTT14=
EXTT15=
EXTT16=
EXTT17=
EXTT18=
EXTT19=
PLAYORDER=
